<mxfile host="app.diagrams.net" modified="2022-01-05T14:24:32.850Z" agent="5.0 (X11; Linux x86_64) AppleWebKit/537.36 (KHTML, like Gecko) Chrome/96.0.4664.110 Safari/537.36" etag="k9T6gsfMzaJFg2Z8VU90" version="15.5.9" type="github">
  <diagram name="Page-1" id="74e2e168-ea6b-b213-b513-2b3c1d86103e">
    <mxGraphModel dx="2522" dy="768" grid="1" gridSize="10" guides="1" tooltips="1" connect="1" arrows="1" fold="1" page="1" pageScale="1" pageWidth="1100" pageHeight="850" background="none" math="0" shadow="0">
      <root>
        <mxCell id="0" />
        <mxCell id="1" parent="0" />
        <mxCell id="8A1LIVAIMTnsmKy0dJs--10" value="" style="rhombus;whiteSpace=wrap;html=1;fontSize=14;" vertex="1" parent="1">
          <mxGeometry x="-970" y="30" width="120" height="120" as="geometry" />
        </mxCell>
        <mxCell id="8A1LIVAIMTnsmKy0dJs--11" value="É um S.O Linux/GNU?" style="text;html=1;strokeColor=none;fillColor=none;align=center;verticalAlign=middle;whiteSpace=wrap;rounded=0;fontSize=14;" vertex="1" parent="1">
          <mxGeometry x="-940" y="75" width="60" height="30" as="geometry" />
        </mxCell>
        <mxCell id="8A1LIVAIMTnsmKy0dJs--12" value="" style="endArrow=none;html=1;rounded=0;fontSize=14;endFill=0;fillColor=#f8cecc;strokeColor=#FF0000;" edge="1" parent="1">
          <mxGeometry relative="1" as="geometry">
            <mxPoint x="-850" y="89.5" as="sourcePoint" />
            <mxPoint x="-430" y="90" as="targetPoint" />
          </mxGeometry>
        </mxCell>
        <mxCell id="8A1LIVAIMTnsmKy0dJs--13" value="Falso (Erro de S.O)" style="edgeLabel;resizable=0;html=1;align=center;verticalAlign=middle;fontSize=14;labelBorderColor=#FF0000;spacingTop=0;spacingBottom=0;spacingLeft=0;" connectable="0" vertex="1" parent="8A1LIVAIMTnsmKy0dJs--12">
          <mxGeometry relative="1" as="geometry" />
        </mxCell>
        <mxCell id="8A1LIVAIMTnsmKy0dJs--14" value="" style="endArrow=classic;html=1;rounded=0;fontSize=14;fillColor=#dae8fc;strokeColor=#6c8ebf;" edge="1" parent="1">
          <mxGeometry relative="1" as="geometry">
            <mxPoint x="-910.5" y="150" as="sourcePoint" />
            <mxPoint x="-910" y="270" as="targetPoint" />
          </mxGeometry>
        </mxCell>
        <mxCell id="8A1LIVAIMTnsmKy0dJs--15" value="Verdadeiro (S.O Linux reconhecido)" style="edgeLabel;resizable=0;html=1;align=center;verticalAlign=middle;fontSize=14;labelBorderColor=#1C3AFF;spacingTop=0;spacing=3;" connectable="0" vertex="1" parent="8A1LIVAIMTnsmKy0dJs--14">
          <mxGeometry relative="1" as="geometry" />
        </mxCell>
        <mxCell id="8A1LIVAIMTnsmKy0dJs--16" value="" style="endArrow=classic;html=1;rounded=0;fontSize=14;strokeColor=#FF0000;" edge="1" parent="1">
          <mxGeometry width="50" height="50" relative="1" as="geometry">
            <mxPoint x="-430" y="90" as="sourcePoint" />
            <mxPoint x="-430" y="210" as="targetPoint" />
          </mxGeometry>
        </mxCell>
        <mxCell id="8A1LIVAIMTnsmKy0dJs--17" value="" style="rounded=1;whiteSpace=wrap;html=1;labelBorderColor=#FF0000;fontSize=14;" vertex="1" parent="1">
          <mxGeometry x="-530" y="210" width="200" height="80" as="geometry" />
        </mxCell>
        <mxCell id="8A1LIVAIMTnsmKy0dJs--19" value="Iniciar Full Backup para Windows &lt;br&gt;(a máquina tem S.O windows)" style="text;html=1;strokeColor=none;fillColor=none;align=center;verticalAlign=middle;whiteSpace=wrap;rounded=0;labelBorderColor=none;fontSize=14;" vertex="1" parent="1">
          <mxGeometry x="-530" y="217.5" width="200" height="65" as="geometry" />
        </mxCell>
        <mxCell id="8A1LIVAIMTnsmKy0dJs--23" value="" style="rounded=1;whiteSpace=wrap;html=1;labelBorderColor=#FF0000;fontSize=14;" vertex="1" parent="1">
          <mxGeometry x="-1010" y="270" width="200" height="80" as="geometry" />
        </mxCell>
        <mxCell id="8A1LIVAIMTnsmKy0dJs--22" value="Iniciar Full Backup para&lt;br&gt;&amp;nbsp;Linux&lt;br&gt;(a máquina tem S.O Linux)" style="text;html=1;strokeColor=none;fillColor=none;align=center;verticalAlign=middle;whiteSpace=wrap;rounded=0;labelBorderColor=none;fontSize=14;" vertex="1" parent="1">
          <mxGeometry x="-1025" y="295" width="230" height="30" as="geometry" />
        </mxCell>
      </root>
    </mxGraphModel>
  </diagram>
</mxfile>
